P2
8 8
255
100 100 100 0 0 0 100 10
90 90 90 10 10 10 90 20
80 80 80 20 20 20 80 30
70 70 70 30 30 30 70 40
60 60 60 40 40 40 60 50
50 50 50 50 50 50 50 60
40 40 40 60 40 40 40 70
30 30 30 70 30 30 30 80
