P2
8 8
255
10 10 10 0 0 0 10 1
9 9 9 1 1 1 9 2
8 8 8 2 2 2 8 3
7 7 7 3 3 3 7 4
6 6 6 4 4 4 6 5
5 5 5 5 5 5 5 6
4 4 4 6 4 4 4 7
3 3 3 7 3 3 3 8
